<svg width="52" height="52" viewBox="0 0 52 52" fill="none" xmlns="http://www.w3.org/2000/svg">
<path d="M37.9172 28.8318L16.4087 7.9235C16.0986 7.62197 15.73 7.38707 15.3257 7.23324C14.9214 7.0794 14.4899 7.00989 14.0578 7.02896C13.6256 7.04804 13.2019 7.15531 12.8128 7.34416C12.4236 7.53302 12.0772 7.79948 11.7948 8.12717C11.1982 8.82 10.8866 9.71332 10.9228 10.6269C10.9589 11.5405 11.3403 12.4064 11.9898 13.0498L22.8491 23.8073" stroke="#7F7F7F" stroke-width="4.33333" stroke-linecap="round"/>
<path d="M22.8483 23.8072L11.0269 12.0845C10.3512 11.4145 9.44739 11.0243 8.49633 10.9919C7.54527 10.9596 6.61707 11.2875 5.89736 11.91C5.55798 12.2036 5.28237 12.5637 5.08752 12.9679C4.89267 13.3721 4.78271 13.812 4.76444 14.2604C4.74617 14.7088 4.81997 15.1561 4.98128 15.5749C5.14259 15.9936 5.388 16.3749 5.70236 16.6951L17.6114 28.8317" stroke="#7F7F7F" stroke-width="4.33333" stroke-linecap="round" stroke-linejoin="round"/>
<path d="M17.6097 28.8318L10.8334 22.2083C10.1761 21.5371 9.28099 21.1517 8.34168 21.1355C7.40237 21.1192 6.49444 21.4735 5.81436 22.1216C5.47987 22.4405 5.21178 22.8224 5.02554 23.2453C4.8393 23.6682 4.7386 24.1238 4.72923 24.5858C4.71987 25.0478 4.80203 25.5071 4.97097 25.9373C5.13992 26.3674 5.39231 26.7598 5.71361 27.092C15.7128 37.4226 20.9019 42.302 22.8487 43.9324C26.0001 46.5725 32.213 47.6666 35.4576 45.5C38.7022 43.3333 41.6348 40.2501 43.0269 37.1897C43.8556 35.3665 45.4644 29.7472 47.8564 20.332C47.9737 19.8698 47.9976 19.3889 47.9267 18.9175C47.8557 18.446 47.6913 17.9934 47.443 17.5864C47.1948 17.1793 46.8677 16.8259 46.4811 16.5469C46.0944 16.268 45.6559 16.069 45.1914 15.9618C44.2359 15.7409 43.2319 15.8989 42.3904 16.4024C41.5488 16.906 40.9352 17.7161 40.6782 18.6625L37.9168 28.8318M34.3591 13.7215C32.0338 10.2496 28.7356 7.54121 24.8778 5.93555M5.62694 36.5906C7.76757 40.1793 10.9195 43.0565 14.6879 44.8619" stroke="#7F7F7F" stroke-width="4.33333" stroke-linecap="round"/>
</svg>
