<svg width="52" height="52" viewBox="0 0 52 52" fill="none" xmlns="http://www.w3.org/2000/svg">
<path fill-rule="evenodd" clip-rule="evenodd" d="M12.5914 2.92285C10.0269 2.92285 7.56735 3.94135 5.75361 5.7544C3.93986 7.56745 2.92042 10.0266 2.91943 12.5911V38.3831C2.91943 40.9483 3.93844 43.4084 5.7523 45.2223C7.56615 47.0361 10.0263 48.0551 12.5914 48.0551H38.3834C40.948 48.0542 43.4071 47.0347 45.2202 45.221C47.0332 43.4072 48.0517 40.9477 48.0517 38.3831V12.5911C48.0507 10.0273 47.0318 7.56866 45.2189 5.75571C43.4059 3.94277 40.9473 2.92384 38.3834 2.92285H12.5914ZM41.1654 12.606C41.1654 13.3448 40.8719 14.0534 40.3495 14.5758C39.8271 15.0982 39.1185 15.3917 38.3797 15.3917C37.6409 15.3917 36.9323 15.0982 36.4099 14.5758C35.8875 14.0534 35.594 13.3448 35.594 12.606C35.594 11.8672 35.8875 11.1586 36.4099 10.6362C36.9323 10.1138 37.6409 9.82028 38.3797 9.82028C39.1185 9.82028 39.8271 10.1138 40.3495 10.6362C40.8719 11.1586 41.1654 11.8672 41.1654 12.606ZM25.4911 17.7614C23.4422 17.7614 21.4771 18.5754 20.0282 20.0242C18.5794 21.4731 17.7654 23.4382 17.7654 25.4871C17.7654 27.5361 18.5794 29.5012 20.0282 30.95C21.4771 32.3989 23.4422 33.2129 25.4911 33.2129C27.5401 33.2129 29.5052 32.3989 30.9541 30.95C32.4029 29.5012 33.2169 27.5361 33.2169 25.4871C33.2169 23.4382 32.4029 21.4731 30.9541 20.0242C29.5052 18.5754 27.5401 17.7614 25.4911 17.7614ZM14.0474 25.4871C14.0474 22.4531 15.2527 19.5433 17.3981 17.3978C19.5435 15.2524 22.4534 14.0471 25.4874 14.0471C28.5215 14.0471 31.4313 15.2524 33.5767 17.3978C35.7222 19.5433 36.9274 22.4531 36.9274 25.4871C36.9274 28.5212 35.7222 31.431 33.5767 33.5764C31.4313 35.7219 28.5215 36.9271 25.4874 36.9271C22.4534 36.9271 19.5435 35.7219 17.3981 33.5764C15.2527 31.431 14.0474 28.5212 14.0474 25.4871Z" fill="#1A1A1A"/>
</svg>
