<svg width="52" height="52" viewBox="0 0 52 52" fill="none" xmlns="http://www.w3.org/2000/svg">
<path d="M35.8716 27.9626L34.8857 28.9441C34.8857 28.9441 32.5392 31.2755 26.1367 24.9098C19.7342 18.5441 22.0807 16.2128 22.0807 16.2128L22.7004 15.5931C24.2322 14.0721 24.3774 11.6281 23.0406 9.8428L20.3106 6.1963C18.6552 3.9863 15.4594 3.6938 13.5636 5.5788L10.1619 8.9588C9.22373 9.8948 8.59539 11.1038 8.67123 12.4471C8.86623 15.8856 10.4219 23.2805 19.0972 31.9081C28.2991 41.0558 36.9332 41.4198 40.4627 41.0905C41.5807 40.9865 42.5514 40.4188 43.3336 39.6388L46.4102 36.5795C48.4902 34.5146 47.9052 30.9721 45.2446 29.527L41.1062 27.2758C39.3599 26.329 37.2366 26.6063 35.8716 27.9626Z" fill="#1A1A1A"/>
</svg>
