<svg width="120" height="120" viewBox="0 0 120 120" fill="none" xmlns="http://www.w3.org/2000/svg">
<path d="M17.2976 106.984L7.7998 0.600098H112.2L102.689 106.967L59.9364 118.8L17.2976 106.984Z" fill="#1572B6"/>
<path d="M60.5996 109.8L94.6008 100.206L102.6 9H60.5996V109.8Z" fill="#33A9DC"/>
<path d="M60.5996 47.5045H77.3818L78.5389 34.0955H60.5996V21H92.3996L92.096 24.5122L88.9816 60.6H60.5996V47.5045Z" fill="white"/>
<path d="M60.6002 81.6649L60.5395 81.682L45.6118 77.7149L44.6577 67.2002H31.2002L33.0781 87.9012L60.5351 95.4002L60.6002 95.3831V81.6649Z" fill="#EBEBEB"/>
<path d="M76.4937 60L74.9455 77.685L60.5996 81.6587V95.4L86.9691 87.897L87.1647 85.6666L89.3996 60H76.4937Z" fill="white"/>
<path d="M60.6 21V34.0955H28.202L27.933 31.151L27.3211 24.5122L27 21H60.6ZM60.5523 47.5045V60.6H45.8026L45.5336 57.6555L44.9261 51.0167L44.605 47.5045H60.5523Z" fill="#EBEBEB"/>
</svg>
