<svg width="44" height="44" viewBox="0 0 44 44" fill="none" xmlns="http://www.w3.org/2000/svg">
<path fill-rule="evenodd" clip-rule="evenodd" d="M10.6542 2.47339C8.48423 2.47339 6.40307 3.3352 4.86836 4.86932C3.33366 6.40343 2.47105 8.48426 2.47021 10.6542V32.4782C2.47021 34.6488 3.33246 36.7304 4.86725 38.2652C6.40205 39.8 8.48368 40.6622 10.6542 40.6622H32.4782C34.6482 40.6614 36.729 39.7988 38.2631 38.2641C39.7973 36.7294 40.6591 34.6482 40.6591 32.4782V10.6542C40.6582 8.4848 39.7961 6.40445 38.262 4.87043C36.728 3.3364 34.6477 2.47422 32.4782 2.47339H10.6542ZM34.8322 10.6668C34.8322 11.292 34.5839 11.8915 34.1418 12.3336C33.6998 12.7756 33.1002 13.024 32.4751 13.024C31.8499 13.024 31.2504 12.7756 30.8083 12.3336C30.3663 11.8915 30.1179 11.292 30.1179 10.6668C30.1179 10.0417 30.3663 9.44212 30.8083 9.00007C31.2504 8.55802 31.8499 8.30968 32.4751 8.30968C33.1002 8.30968 33.6998 8.55802 34.1418 9.00007C34.5839 9.44212 34.8322 10.0417 34.8322 10.6668ZM21.5694 15.0291C19.8356 15.0291 18.1729 15.7178 16.9469 16.9438C15.721 18.1697 15.0322 19.8325 15.0322 21.5662C15.0322 23.3 15.721 24.9628 16.9469 26.1887C18.1729 27.4147 19.8356 28.1034 21.5694 28.1034C23.3031 28.1034 24.9659 27.4147 26.1918 26.1887C27.4178 24.9628 28.1065 23.3 28.1065 21.5662C28.1065 19.8325 27.4178 18.1697 26.1918 16.9438C24.9659 15.7178 23.3031 15.0291 21.5694 15.0291ZM11.8862 21.5662C11.8862 18.999 12.9061 16.5368 14.7214 14.7215C16.5368 12.9061 18.9989 11.8862 21.5662 11.8862C24.1335 11.8862 26.5957 12.9061 28.411 14.7215C30.2264 16.5368 31.2462 18.999 31.2462 21.5662C31.2462 24.1335 30.2264 26.5957 28.411 28.411C26.5957 30.2264 24.1335 31.2463 21.5662 31.2463C18.9989 31.2463 16.5368 30.2264 14.7214 28.411C12.9061 26.5957 11.8862 24.1335 11.8862 21.5662Z" fill="#1A1A1A"/>
</svg>
