<svg width="44" height="44" viewBox="0 0 44 44" fill="none" xmlns="http://www.w3.org/2000/svg">
<path d="M20.5327 15.3541L26.9494 4.35413C29.7299 5.08746 32.1976 6.4319 34.3524 8.38746C36.5072 10.343 38.0728 12.6652 39.0494 15.3541H20.5327ZM15.4452 19.9375L9.16604 8.93746C10.816 7.31801 12.7337 6.03468 14.919 5.08746C17.1044 4.14024 19.4645 3.66663 21.9994 3.66663C22.3966 3.66663 22.8549 3.68985 23.3744 3.73629C23.8938 3.78274 24.3674 3.8359 24.7952 3.89579L15.4452 19.9375ZM4.26187 26.5833C4.07854 25.85 3.93309 25.1013 3.82554 24.3375C3.71798 23.5736 3.66481 22.7944 3.66604 22C3.66604 19.8305 4.01743 17.7833 4.7202 15.8583C5.42298 13.9333 6.41604 12.1763 7.69937 10.5875L16.9577 26.5833H4.26187ZM17.0952 39.6458C14.3146 38.9125 11.8396 37.568 9.6702 35.6125C7.50076 33.6569 5.92715 31.3347 4.94937 28.6458H23.4202L17.0952 39.6458ZM21.9994 40.3333C21.541 40.3333 21.0748 40.3027 20.6005 40.2416C20.1263 40.1805 19.6759 40.1194 19.2494 40.0583L28.5535 24.0625L34.8327 35.0625C33.1827 36.6819 31.2656 37.9652 29.0815 38.9125C26.8974 39.8597 24.5367 40.3333 21.9994 40.3333ZM36.2994 33.4125L27.041 17.4166H39.7369C39.9202 18.15 40.0656 18.8986 40.1732 19.6625C40.2808 20.4263 40.3339 21.2055 40.3327 22C40.3327 24.1388 39.9587 26.1861 39.2107 28.1416C38.4627 30.0972 37.4923 31.8541 36.2994 33.4125Z" fill="#1A1A1A"/>
</svg>
