<svg width="120" height="120" viewBox="0 0 120 120" fill="none" xmlns="http://www.w3.org/2000/svg">
<path d="M17.8475 106.759L8.46777 1.55713H111.533L102.143 106.743L59.9375 118.443L17.8475 106.759Z" fill="#E44D26"/>
<path d="M60 109.5L94.1044 100.044L102.128 10.1587H60V109.5Z" fill="#F16529"/>
<path d="M59.9537 48.9148H42.8799L41.7005 35.7017H59.9537V22.7998H27.5996L27.909 26.2611L31.0796 61.8176H59.9537V48.9148ZM59.9537 82.4239L59.8965 82.4398L45.5274 78.5585L44.6096 68.2695H31.6562L33.4637 88.5279L59.8946 95.8648L59.9537 95.8489V82.4239Z" fill="#EBEBEB"/>
<path d="M59.9551 49.1765V62.0793H75.8429L74.3457 78.8128L59.9551 82.6968V96.1209L86.4066 88.7896L86.6007 86.61L89.6326 52.6415L89.9466 49.1765H86.4704H59.9551ZM59.9551 23.0615V35.9634H91.1213L91.3801 33.0646L91.9688 26.5228L92.2773 23.0615H59.9551Z" fill="white"/>
</svg>
