<svg width="104" height="119" viewBox="0 0 104 119" fill="none" xmlns="http://www.w3.org/2000/svg">
<g clip-path="url(#clip0_160_2033)">
<path d="M0 0.0642842C0.281889 -0.0296789 0.521068 0.00876054 0.751704 0.00876054C11.1303 0.0173026 21.509 0.0301158 31.8834 0.0429289C33.9121 0.0429289 35.9409 0.0429289 37.9696 0.0557421C57.4755 0.205229 76.9771 0.124079 96.483 0.175331C98.7253 0.179602 100.963 0.192416 103.206 0.196687C103.325 0.196687 103.44 0.205229 103.56 0.196687C103.897 0.175331 104.026 0.324818 103.996 0.662231C103.915 1.62322 103.859 2.58847 103.778 3.54946C103.667 4.86067 103.53 6.17188 103.415 7.48736C103.231 9.55028 103.048 11.6132 102.868 13.6761C102.71 15.5297 102.561 17.3834 102.398 19.237C102.232 21.159 102.052 23.081 101.882 25.0072C101.775 26.2287 101.677 27.446 101.574 28.6675C101.395 30.756 101.211 32.8403 101.027 34.9288C100.921 36.1717 100.822 37.4146 100.711 38.6575C100.536 40.652 100.357 42.6466 100.186 44.6369C100.071 45.9738 99.9681 47.3149 99.8485 48.6517C99.6777 50.6207 99.4941 52.5896 99.3232 54.5586C99.1609 56.4336 99.0157 58.3128 98.8534 60.1878C98.6911 62.0628 98.5117 63.9421 98.3451 65.8171C98.2255 67.1539 98.1273 68.495 98.0077 69.8318C97.7899 72.3389 97.5635 74.8503 97.3457 77.3574C97.2304 78.6686 97.1322 79.9841 97.0211 81.2996C96.8503 83.2686 96.6709 85.2418 96.5 87.2107C96.3933 88.4066 96.295 89.6025 96.1883 90.7984C96.0003 92.9553 95.8124 95.1164 95.6245 97.2733C95.3938 99.9 95.1632 102.527 94.9368 105.153C94.9112 105.457 94.8856 105.764 94.8899 106.072C94.8984 106.413 94.7489 106.563 94.42 106.653C92.6988 107.135 90.9861 107.648 89.2692 108.147C84.003 109.672 78.7325 111.188 73.4663 112.713C68.6528 114.106 63.8393 115.506 59.0259 116.903C56.9672 117.501 54.9086 118.09 52.8542 118.697C52.5467 118.787 52.2734 118.782 51.9616 118.697C46.2982 117.1 40.6347 115.511 34.9671 113.922C28.5776 112.128 22.1881 110.334 15.7986 108.54C13.6674 107.942 11.5446 107.332 9.40912 106.751C8.92649 106.618 8.66595 106.452 8.63606 105.879C8.56345 104.423 8.39688 102.971 8.27729 101.514C8.08509 99.2166 7.90144 96.9188 7.70924 94.621C7.48287 91.926 7.25224 89.2267 7.03014 86.5316C6.91483 85.1222 6.83368 83.7127 6.71409 82.3033C6.54752 80.2874 6.35532 78.2714 6.18448 76.2512C6.06489 74.8204 5.96665 73.3896 5.85133 71.9588C5.68476 69.8959 5.50111 67.833 5.33454 65.7658C5.22349 64.4033 5.1338 63.0409 5.02275 61.6827C4.84764 59.5472 4.65971 57.4116 4.4846 55.2761C4.37782 53.9606 4.28813 52.6451 4.17708 51.3339C4.00624 49.271 3.81832 47.2081 3.6432 45.1452C3.53643 43.8553 3.44246 42.5655 3.33569 41.2756C3.15203 39.0461 2.96411 36.8166 2.78472 34.5872C2.67368 33.2033 2.58825 31.8152 2.47294 30.4314C2.30209 28.3899 2.11417 26.3526 1.94333 24.311C1.82801 22.9272 1.73832 21.5391 1.623 20.1553C1.4009 17.4816 1.166 14.8079 0.943901 12.1343C0.828583 10.7504 0.743162 9.36235 0.632115 7.97853C0.465544 5.93697 0.281889 3.89541 0.111047 1.85385C0.0683368 1.26872 0.0384394 0.679315 0 0.0642842ZM52.5168 108.489C52.5979 108.502 52.6236 108.515 52.6449 108.506C55.0495 107.789 57.4669 107.105 59.8715 106.379C61.7764 105.803 63.7112 105.299 65.6246 104.743C67.2007 104.286 68.7809 103.825 70.357 103.368C71.7109 102.975 73.0648 102.587 74.4145 102.194C75.9905 101.737 77.5665 101.271 79.1468 100.814C80.6758 100.37 82.2091 99.9256 83.7424 99.4857C84.8913 99.1568 86.0445 98.8322 87.1977 98.5119C87.4625 98.4393 87.6846 98.3454 87.6803 98.0037C87.6718 97.064 87.911 96.1372 87.9366 95.2104C87.9708 93.7283 88.2527 92.2677 88.2527 90.7899C88.2527 90.6489 88.2868 90.5122 88.2996 90.3713C88.3765 89.6495 88.5559 88.9362 88.5217 88.2102C88.4876 87.3816 88.6456 86.5701 88.7139 85.7543C88.7652 85.1478 88.731 84.5285 88.8463 83.9306C88.9958 83.1447 89.0343 82.346 89.077 81.5559C89.1197 80.7828 89.2094 80.0097 89.282 79.241C89.3375 78.6345 89.3161 78.0194 89.4101 77.4172C89.5382 76.5844 89.6407 75.7472 89.6621 74.9016C89.6664 74.6667 89.6536 74.4275 89.6877 74.1969C89.8329 73.2914 89.8885 72.3817 89.944 71.4719C89.9867 70.7928 90.0465 70.1137 90.1234 69.4389C90.2259 68.5078 90.2216 67.5639 90.3796 66.6414C90.5035 65.9153 90.4266 65.1807 90.5462 64.4674C90.764 63.169 90.7683 61.8535 90.9178 60.5509C91.0075 59.7394 91.0844 58.9193 91.1143 58.095C91.1356 57.5184 91.1442 56.9162 91.2595 56.3481C91.426 55.5366 91.3748 54.7123 91.4773 53.9008C91.5755 53.115 91.6054 52.3077 91.6823 51.5176C91.8062 50.3089 91.9215 49.0959 92.0411 47.8872C92.1564 46.7255 92.2205 45.5552 92.34 44.3849C92.4981 42.826 92.6177 41.2585 92.7586 39.6953C92.8568 38.6233 92.9764 37.5513 93.0362 36.475C93.1174 35.0484 93.3566 33.6304 93.3437 32.1954C93.3437 32.0544 93.3694 31.9135 93.3864 31.7768C93.4633 31.0806 93.6085 30.3802 93.6043 29.684C93.6 28.881 93.7367 28.0909 93.7922 27.2965C93.8734 26.1988 94.0485 25.1097 94.0485 24.0035C94.0485 23.8839 94.0485 23.7686 94.0698 23.6533C94.2193 22.7521 94.3432 21.8466 94.3304 20.9283C94.3304 20.7404 94.3218 20.5482 94.3602 20.3646C94.5225 19.583 94.5482 18.78 94.5909 17.9899C94.6336 17.2168 94.7276 16.4438 94.7959 15.675C94.8514 15.0685 94.8386 14.4577 94.924 13.8512C95.0564 12.8774 95.1888 11.8994 95.1803 10.9127C95.1718 10.3362 95.1675 10.3362 94.5738 10.3233C91.4901 10.2593 88.4021 10.4686 85.3227 10.1824C74.6408 10.1824 63.9547 10.1824 53.2728 10.1824C52.3887 10.1824 52.4356 10.1397 52.4356 11.0409C52.4356 43.283 52.4356 75.5251 52.4356 107.772C52.4356 108.002 52.3844 108.241 52.5125 108.481L52.5168 108.489ZM17.2337 75.1664C17.2038 75.333 17.1824 75.4013 17.1824 75.4696C17.1824 81.7908 17.1824 88.1119 17.1739 94.4331C17.1739 94.7748 17.2764 94.92 17.6266 95.0054C19.7023 95.5265 21.7738 96.0732 23.8453 96.6156C31.4947 98.6102 39.1441 100.609 46.7979 102.591C47.84 102.86 47.8058 103.044 47.8058 101.796C47.8058 75.4696 47.8058 49.1472 47.8058 22.8204C47.8058 22.6795 47.8058 22.5385 47.8058 22.3976C47.7973 21.8125 47.7973 21.8039 47.2335 21.8039C43.838 21.8039 40.4425 21.8039 37.0471 21.8039C36.4833 21.8039 36.4747 21.8125 36.4747 22.4061C36.4747 24.3409 36.4747 26.2757 36.4747 28.2105C36.4747 47.601 36.4747 66.9916 36.4747 86.3821C36.4747 86.6769 36.5431 86.9886 36.3936 87.2919C36.0818 87.2364 35.7786 87.1894 35.4796 87.1296C33.1006 86.6769 30.7216 86.2198 28.3384 85.7757C27.6892 85.6518 27.6849 85.6689 27.6849 84.9599C27.6849 82.4613 27.6849 79.9585 27.6849 77.4599C27.6849 76.815 27.6764 76.8235 27.0272 76.721C24.4945 76.3153 21.966 75.901 19.4333 75.4952C18.7157 75.3799 17.9982 75.2774 17.2465 75.1664H17.2337Z" fill="#EACA32"/>
<path d="M52.5167 108.489C52.3886 108.254 52.4398 108.011 52.4398 107.78C52.4398 75.5378 52.4398 43.2956 52.4398 11.0492C52.4398 10.148 52.3928 10.1907 53.2769 10.1907C63.9588 10.1907 74.645 10.1907 85.3269 10.1907C88.4063 10.4726 91.4943 10.2634 94.578 10.3317C95.1674 10.3445 95.1759 10.3445 95.1845 10.9211C95.1973 11.9077 95.0649 12.8858 94.9282 13.8596C94.847 14.4618 94.8556 15.0768 94.8001 15.6833C94.7317 16.4521 94.6378 17.2209 94.595 17.9982C94.5523 18.7884 94.5267 19.5871 94.3644 20.3729C94.326 20.5566 94.3302 20.7488 94.3345 20.9367C94.3473 21.855 94.2235 22.7604 94.074 23.6616C94.0569 23.777 94.0526 23.8965 94.0526 24.0119C94.0526 25.1181 93.8775 26.2072 93.7964 27.3048C93.7366 28.0993 93.6042 28.8851 93.6084 29.6924C93.6084 30.3885 93.4675 31.0847 93.3906 31.7852C93.3735 31.9261 93.3479 32.0671 93.3479 32.2037C93.3564 33.6388 93.1215 35.0568 93.0404 36.4833C92.9763 37.5553 92.8567 38.6317 92.7628 39.7037C92.6218 41.2669 92.5022 42.8301 92.3442 44.3933C92.2246 45.5593 92.1606 46.7296 92.0452 47.8956C91.9256 49.1043 91.8103 50.3172 91.6865 51.5259C91.6053 52.3118 91.5754 53.1233 91.4815 53.9092C91.379 54.725 91.4302 55.545 91.2636 56.3565C91.1483 56.9245 91.1398 57.5268 91.1184 58.1034C91.0885 58.9277 91.0116 59.7477 90.922 60.5592C90.7725 61.8619 90.7682 63.1774 90.5504 64.4758C90.4308 65.189 90.5077 65.9236 90.3838 66.6497C90.2258 67.5723 90.2343 68.5162 90.1275 69.4473C90.0507 70.1178 89.9909 70.8012 89.9482 71.4803C89.8926 72.39 89.8371 73.304 89.6919 74.2052C89.6534 74.4358 89.6705 74.675 89.6663 74.9099C89.6449 75.7556 89.5424 76.5884 89.4143 77.4256C89.3203 78.0278 89.3417 78.6428 89.2861 79.2493C89.2178 80.0181 89.1238 80.7869 89.0811 81.5642C89.0384 82.3544 89 83.153 88.8505 83.9389C88.7352 84.5369 88.7693 85.1562 88.7181 85.7627C88.6498 86.5784 88.4917 87.3899 88.5259 88.2185C88.5558 88.9446 88.3807 89.6621 88.3038 90.3797C88.291 90.5206 88.2568 90.6573 88.2568 90.7982C88.2568 92.2803 87.9792 93.7367 87.9408 95.2188C87.9194 96.1456 87.6802 97.0724 87.6845 98.012C87.6845 98.3494 87.4624 98.4434 87.2019 98.5203C86.0487 98.8449 84.8955 99.1652 83.7466 99.4941C82.2133 99.934 80.6843 100.378 79.1509 100.822C77.5749 101.279 75.9989 101.745 74.4186 102.202C73.0647 102.595 71.7108 102.984 70.3611 103.376C68.7851 103.833 67.2048 104.295 65.6288 104.752C63.7154 105.307 61.7806 105.807 59.8757 106.388C57.4711 107.118 55.058 107.801 52.6491 108.515C52.6277 108.519 52.6064 108.51 52.521 108.497L52.5167 108.489ZM87.6589 21.8977C87.4112 21.7525 87.172 21.8123 86.9413 21.8123C77.0368 21.8123 67.1365 21.8123 57.2319 21.8123C56.1855 21.8123 56.3137 21.6841 56.3137 22.769C56.3137 37.8885 56.3137 53.008 56.3137 68.1232C56.3137 68.2642 56.3137 68.4051 56.3137 68.5461C56.3265 69.1227 56.3393 69.1397 56.9244 69.0629C57.9751 68.9176 59.0215 68.7639 60.0679 68.6101C62.5835 68.2471 65.0992 67.8798 67.6148 67.5125C70.0365 67.158 72.4582 66.812 74.8799 66.449C75.7213 66.3209 75.7213 66.308 75.6829 67.1409C75.6829 67.2135 75.6743 67.2818 75.67 67.3544C75.4864 70.3655 75.2985 73.3723 75.1148 76.3834C74.9824 78.5489 74.8329 80.71 74.7219 82.8754C74.6962 83.3623 74.551 83.6314 74.0556 83.7809C72.9067 84.1311 71.7791 84.5411 70.643 84.9298C66.0773 86.493 61.5158 88.0605 56.95 89.628C56.3094 89.8501 56.3094 89.8543 56.3094 90.5804C56.3094 94.403 56.3094 98.2213 56.3094 102.044C56.3094 102.185 56.3094 102.326 56.3094 102.467C56.3094 102.702 56.4033 102.825 56.6553 102.774C56.7707 102.753 56.886 102.732 57.0013 102.706C58.8806 102.27 60.7598 101.83 62.6391 101.395C69.4001 99.8272 76.1655 98.2555 82.9266 96.688C83.3138 96.5997 83.5174 96.3563 83.5373 95.9576C83.627 94.2877 83.7167 92.6177 83.8021 90.9477C83.9473 88.0776 84.0883 85.2074 84.2335 82.333C84.3702 79.6038 84.5196 76.8746 84.6521 74.1411C84.8186 70.7029 84.9638 67.269 85.1475 63.8308C85.203 62.7716 85.25 61.7124 85.3013 60.6532C85.3824 58.9362 85.4806 57.2192 85.5618 55.498C85.5874 54.9513 85.5661 54.9513 85.0322 54.9385C84.8656 54.9385 84.7033 54.9385 84.5367 54.9385C79.3944 54.9385 74.2563 54.9385 69.114 54.9385C68.2341 54.9385 68.2897 55.0666 68.2897 54.0928C68.2897 47.8187 68.2897 41.5445 68.2897 35.2703C68.2897 34.2752 68.1658 34.3734 69.2037 34.3734C74.44 34.3734 79.6763 34.3734 84.9083 34.3734C85.596 34.3734 85.5874 34.3691 85.6985 33.7071C86.2409 30.4825 86.7961 27.2579 87.33 24.0289C87.4496 23.3157 87.6162 22.6067 87.6461 21.8849L87.6589 21.8977Z" fill="#FFDE24"/>
<path d="M17.2337 75.1662C17.9854 75.2772 18.7073 75.3797 19.4205 75.495C21.9532 75.9008 24.4817 76.3151 27.0144 76.7208C27.6636 76.8233 27.6722 76.8105 27.6722 77.4597C27.6722 79.9583 27.6722 82.4611 27.6722 84.9597C27.6722 85.6687 27.6765 85.6559 28.3257 85.7755C30.7046 86.2239 33.0836 86.6766 35.4668 87.1294C35.7658 87.1849 36.0648 87.2362 36.3808 87.2917C36.5346 86.9884 36.462 86.6809 36.462 86.3819C36.462 66.9914 36.462 47.6008 36.462 28.2103C36.462 26.2755 36.462 24.3407 36.462 22.4059C36.462 21.8165 36.4705 21.808 37.0343 21.8037C40.4298 21.8037 43.8253 21.8037 47.2208 21.8037C47.7845 21.8037 47.7845 21.8123 47.7931 22.3974C47.7931 22.5383 47.7931 22.6793 47.7931 22.8202C47.7931 49.147 47.7931 75.4694 47.7931 101.796C47.7931 103.043 47.823 102.86 46.7851 102.591C39.1314 100.609 31.4862 98.6057 23.8325 96.6154C21.7611 96.0772 19.6896 95.5263 17.6139 95.0052C17.2679 94.9198 17.1611 94.7746 17.1611 94.4329C17.1697 88.1117 17.1697 81.7906 17.1697 75.4694C17.1697 75.4011 17.191 75.3327 17.2209 75.1662H17.2337Z" fill="white"/>
<path d="M87.6587 21.8978C87.6288 22.6153 87.4579 23.3243 87.3426 24.0419C86.8087 27.2708 86.2535 30.4954 85.711 33.72C85.6 34.3821 85.6085 34.3863 84.9209 34.3863C79.6846 34.3863 74.4483 34.3863 69.2163 34.3863C68.1784 34.3863 68.3023 34.2838 68.3023 35.2833C68.3023 41.5574 68.3023 47.8316 68.3023 54.1058C68.3023 55.0753 68.2467 54.9514 69.1266 54.9514C74.2689 54.9514 79.407 54.9514 84.5493 54.9514C84.7159 54.9514 84.8782 54.9514 85.0448 54.9514C85.5829 54.9642 85.6 54.9685 85.5744 55.5109C85.4975 57.2279 85.395 58.9449 85.3138 60.6661C85.2626 61.7253 85.2199 62.7845 85.1601 63.8437C84.9764 67.2777 84.8312 70.7159 84.6646 74.154C84.5322 76.8832 84.3828 79.6125 84.2461 82.3459C84.1009 85.2161 83.9599 88.0862 83.8147 90.9606C83.7293 92.6306 83.6396 94.3006 83.5499 95.9706C83.53 96.3663 83.3264 96.6098 82.9391 96.7009C76.1781 98.2684 69.4127 99.8401 62.6517 101.408C60.7724 101.843 58.8931 102.283 57.0139 102.719C56.8986 102.744 56.7832 102.766 56.6679 102.787C56.4159 102.834 56.322 102.715 56.322 102.48C56.322 102.339 56.322 102.198 56.322 102.057C56.322 98.2342 56.322 94.4159 56.322 90.5933C56.322 89.8672 56.322 89.863 56.9626 89.6409C61.5241 88.0734 66.0899 86.5059 70.6556 84.9427C71.7917 84.5541 72.9193 84.1398 74.0682 83.7938C74.5636 83.6443 74.7088 83.3752 74.7345 82.8883C74.8455 80.7229 74.995 78.5618 75.1274 76.3963C75.3153 73.3853 75.499 70.3784 75.6826 67.3674C75.6869 67.2947 75.6912 67.2264 75.6954 67.1538C75.7339 66.3252 75.7339 66.338 74.8925 66.4619C72.4708 66.8249 70.0491 67.1752 67.6274 67.5254C65.1118 67.8927 62.5961 68.2557 60.0805 68.623C59.0341 68.7768 57.9834 68.9306 56.937 69.0758C56.3519 69.1569 56.3348 69.1356 56.3262 68.559C56.3262 68.418 56.3262 68.2771 56.3262 68.1361C56.3262 53.0166 56.3262 37.8971 56.3262 22.7819C56.3262 21.6928 56.1981 21.8252 57.2445 21.8252C67.1491 21.8252 77.0494 21.8252 86.9539 21.8252C87.1846 21.8252 87.4237 21.7654 87.6715 21.9106L87.6587 21.8978Z" fill="white"/>
</g>
<defs>
<clipPath id="clip0_160_2033">
<rect width="104" height="118.761" fill="white"/>
</clipPath>
</defs>
</svg>
