<svg width="34" height="34" viewBox="0 0 34 34" fill="none" xmlns="http://www.w3.org/2000/svg">
<g clip-path="url(#clip0_210_937)">
<path d="M28.3332 24.7916C28.8789 24.7919 29.4036 25.0021 29.7985 25.3787C30.1935 25.7553 30.4284 26.2694 30.4547 26.8145C30.4809 27.3596 30.2964 27.8938 29.9394 28.3066C29.5824 28.7194 29.0803 28.979 28.5372 29.0317L28.3332 29.0416H5.6665C5.12078 29.0413 4.59608 28.8311 4.20112 28.4545C3.80617 28.0779 3.57124 27.5638 3.54501 27.0187C3.51879 26.4736 3.70328 25.9393 4.06025 25.5265C4.41723 25.1138 4.91933 24.8542 5.4625 24.8015L5.6665 24.7916H28.3332ZM28.3332 14.8749C28.8968 14.8749 29.4373 15.0988 29.8358 15.4973C30.2343 15.8958 30.4582 16.4363 30.4582 16.9999C30.4582 17.5635 30.2343 18.104 29.8358 18.5025C29.4373 18.901 28.8968 19.1249 28.3332 19.1249H5.6665C5.10292 19.1249 4.56242 18.901 4.1639 18.5025C3.76539 18.104 3.5415 17.5635 3.5415 16.9999C3.5415 16.4363 3.76539 15.8958 4.1639 15.4973C4.56242 15.0988 5.10292 14.8749 5.6665 14.8749H28.3332ZM28.3332 4.95825C28.8968 4.95825 29.4373 5.18214 29.8358 5.58065C30.2343 5.97916 30.4582 6.51967 30.4582 7.08325C30.4582 7.64684 30.2343 8.18734 29.8358 8.58585C29.4373 8.98437 28.8968 9.20825 28.3332 9.20825H5.6665C5.10292 9.20825 4.56242 8.98437 4.1639 8.58585C3.76539 8.18734 3.5415 7.64684 3.5415 7.08325C3.5415 6.51967 3.76539 5.97916 4.1639 5.58065C4.56242 5.18214 5.10292 4.95825 5.6665 4.95825H28.3332Z" fill="#1A1A1A"/>
</g>
<defs>
<clipPath id="clip0_210_937">
<rect width="34" height="34" fill="white"/>
</clipPath>
</defs>
</svg>
