<svg width="129" height="118" viewBox="0 0 129 118" fill="none" xmlns="http://www.w3.org/2000/svg">
<path d="M105.077 37.8519C103.717 37.3726 102.345 36.9286 100.963 36.5203C101.195 35.5461 101.409 34.5837 101.599 33.6383C104.713 18.1122 102.677 5.60408 95.7236 1.48581C89.0567 -2.46223 78.1536 1.6545 67.1422 11.4974C66.057 12.4692 64.9958 13.469 63.9598 14.4959C63.2662 13.8131 62.5604 13.1435 61.8427 12.4875C50.3021 1.96316 38.7346 -2.47249 31.7887 1.65758C25.1278 5.61792 23.1555 17.3764 25.959 32.0908C26.2379 33.5481 26.5528 34.9979 26.9035 36.4388C25.2661 36.9167 23.6861 37.4253 22.174 37.9667C8.64363 42.8121 0.00292969 50.4051 0.00292969 58.2812C0.00292969 66.4157 9.27912 74.5748 23.3716 79.5222C24.5141 79.9216 25.6661 80.2918 26.8266 80.6323C26.4497 82.1841 26.1151 83.7465 25.8232 85.3176C23.1505 99.7767 25.2376 111.257 31.8805 115.193C38.7416 119.256 50.2572 115.08 61.4698 105.012C62.379 104.194 63.2682 103.352 64.1365 102.488C65.2585 103.6 66.4104 104.679 67.591 105.725C78.4526 115.325 89.1795 119.201 95.8159 115.255C102.67 111.179 104.898 98.8461 102.006 83.8409C101.778 82.6654 101.523 81.4957 101.24 80.3328C102.048 80.0867 102.842 79.8334 103.616 79.5699C118.267 74.5846 127.799 66.5244 127.799 58.2812C127.799 50.3764 118.879 42.7321 105.077 37.8519ZM101.899 74.2477C101.2 74.4851 100.483 74.7143 99.7526 74.9373C98.1352 69.6782 95.9527 64.0864 93.2815 58.3084C95.8304 52.6683 97.929 47.1477 99.501 41.923C100.808 42.3116 102.077 42.7213 103.3 43.1535C115.126 47.3354 122.34 53.5174 122.34 58.2812C122.34 63.3552 114.549 69.9423 101.899 74.2477ZM96.6506 84.93C97.9295 91.5648 98.1118 97.5637 97.2646 102.254C96.5038 106.468 94.9733 109.277 93.0803 110.403C89.0532 112.797 80.4405 109.685 71.1518 101.475C70.0537 100.502 68.9822 99.4987 67.9384 98.4651C71.5397 94.4202 75.1384 89.7179 78.6508 84.4952C84.829 83.9322 90.6656 83.0113 95.9587 81.7546C96.2137 82.8073 96.4444 83.8661 96.6506 84.93ZM43.5714 109.989C39.6366 111.416 36.5026 111.457 34.6082 110.335C30.5771 107.947 28.9013 98.7287 31.1871 86.3636C31.4589 84.9024 31.77 83.4493 32.1201 82.0059C37.3548 83.1954 43.149 84.0507 49.3416 84.5665C52.878 89.6769 56.5806 94.374 60.3121 98.4872C59.5191 99.2753 58.7073 100.043 57.8775 100.79C52.9189 105.242 47.9504 108.4 43.5714 109.989ZM25.1378 74.2164C18.9062 72.0286 13.76 69.1855 10.2326 66.083C7.06266 63.2952 5.46271 60.527 5.46271 58.2812C5.46271 53.5015 12.4001 47.4051 23.9712 43.2617C25.3754 42.7593 26.8451 42.285 28.3701 41.8399C29.9696 47.1826 32.0672 52.7688 34.5987 58.4176C32.0343 64.15 29.9067 69.8254 28.2918 75.2311C27.2325 74.9195 26.1809 74.5812 25.1378 74.2164ZM31.3169 31.0136C28.9153 18.407 30.5102 8.89736 34.5243 6.51059C38.7995 3.96846 48.2534 7.59297 58.218 16.6806C58.8677 17.2746 59.507 17.8806 60.1354 18.4983C56.4223 22.5935 52.7537 27.2558 49.2488 32.3359C43.2384 32.9081 37.4851 33.8269 32.1955 35.058C31.8696 33.7178 31.5767 32.3689 31.3169 31.0136ZM86.4424 44.9953C85.193 42.7787 83.8973 40.59 82.5561 38.4308C86.6336 38.9604 90.5403 39.6634 94.209 40.5227C93.1077 44.1488 91.7349 47.9394 90.119 51.8259C88.9379 49.5241 87.7121 47.2468 86.4424 44.9953ZM63.9623 22.5063C66.4803 25.3084 69.0022 28.4366 71.4828 31.8309C66.4508 31.5868 61.4105 31.5858 56.3784 31.8278C58.8614 28.4648 61.4049 25.3407 63.9623 22.5063ZM41.3379 45.0332C40.0841 47.2666 38.8812 49.5297 37.7302 51.8208C36.1407 47.9481 34.7804 44.14 33.6697 40.4627C37.3158 39.6249 41.2041 38.9399 45.2557 38.42C43.8995 40.5924 42.5933 42.7978 41.3379 45.0332ZM45.372 78.5413C41.1862 78.0614 37.2395 77.4118 33.5943 76.5965C34.7225 72.8536 36.1128 68.9645 37.7367 65.0088C38.8922 67.3015 40.1001 69.566 41.3594 71.8004C42.6543 74.0975 43.9952 76.3474 45.372 78.5413ZM64.113 94.4514C61.5252 91.5842 58.9443 88.412 56.4238 85.0002C58.8709 85.0987 61.3654 85.1489 63.9009 85.1489C66.5057 85.1489 69.0806 85.0889 71.6151 84.9731C69.1265 88.4463 66.6141 91.6232 64.113 94.4514ZM90.1704 64.8068C91.8787 68.8061 93.3184 72.6746 94.4616 76.3535C90.7565 77.2221 86.7559 77.9214 82.5406 78.4408C83.8914 76.2415 85.1994 74.0148 86.4639 71.762C87.7495 69.4721 88.9853 67.1531 90.1704 64.8068ZM81.7349 68.9604C79.7991 72.4144 77.7544 75.8028 75.6042 79.1202C71.7092 79.4036 67.8056 79.5443 63.9009 79.5422C59.9237 79.5422 56.0554 79.415 52.3304 79.1669C50.124 75.8571 48.0403 72.4628 46.0838 68.9912C44.1365 65.538 42.3181 62.01 40.6315 58.415C42.3138 54.8192 44.1272 51.2896 46.0679 47.8338L46.0674 47.8343C48.0073 44.3776 50.0743 40.9977 52.264 37.7022C56.0644 37.4068 59.9617 37.253 63.9004 37.253C67.8571 37.253 71.7598 37.4084 75.5593 37.7058C77.7268 40.9964 79.7807 44.3646 81.7169 47.804C83.664 51.2523 85.5014 54.7646 87.2261 58.3356C85.5191 61.943 83.6875 65.4869 81.7349 68.9604ZM92.9969 6.34344C97.2761 8.87839 98.9404 19.1007 96.2517 32.5061C96.08 33.3614 95.8873 34.2325 95.6776 35.1159C90.3751 33.8587 84.6178 32.924 78.5899 32.3431C75.0785 27.207 71.4398 22.5376 67.7872 18.4952C68.7445 17.5474 69.7245 16.6242 70.7265 15.7265C80.1614 7.29353 88.9793 3.96385 92.9969 6.34344ZM63.9009 46.5601C70.2033 46.5601 75.3127 51.808 75.3127 58.2812C75.3127 64.7545 70.2033 70.0023 63.9009 70.0023C57.5985 70.0023 52.4891 64.7545 52.4891 58.2812C52.4891 51.808 57.5985 46.5601 63.9009 46.5601Z" fill="#00D8FF"/>
</svg>
